<svg xmlns="http://www.w3.org/2000/svg" width="1706.7" height="853.3" version="1.0" viewBox="0 0 1280 640">
  <path d="M280 26v6l1 5h-9c-3-1-3-1 4 7 10 11 24 32 27 41 2 6 1 9-5 12-3 2-6 2-11 3h-8c-2 0-2 4 0 6 2 3 8 7 26 17 29 15 46 28 52 38 3 5 2 7-2 10l-18 1c-46-2-62-2-70-1-8 2-12 5-13 7l2 3 27 1c50 2 82 7 87 14 3 4 9 18 12 26 7 20 6 27-6 38-8 8-19 12-42 16-17 2-54 2-65 0-23-6-64-24-73-33-8-8-9-14-12-53-1-17-2-19-7-19-3 0-4 1-5 4-2 3-4 16-4 29 0 11-1 13-3 13-8 0-23-18-36-42-10-19-13-23-19-18-3 4-3 8 3 21l6 17c0 4 0 4-4 6l-8 3-14 6c-10 5-15 8-15 10l6 7c6 7 9 12 8 14-2 6-50 23-66 23-6 0-9 1-10 3 0 3 1 3 18 0 30-6 49-12 59-20l6-3c3 1-6 8-16 13-19 9-42 16-66 20-13 2-17 3-17 5s6 1 25-2c23-5 45-11 59-17 13-6 24-17 26-24l2-6 2-5 2-4 8-4c8 0 13 2 27 14a286 286 0 0 0 89 50c34 14 66 31 75 39 5 5 8 12 8 15-2 6-9 12-20 15a924 924 0 0 1-189-9l-28-17c-19-14-27-17-34-14-6 3-3 7 14 21l21 18c7 7 8 8 7 10l-15 9c-20 11-27 16-36 25-7 7-9 12-7 16 2 3 5 2 23-8 37-22 64-32 82-33l8 1-5 12-6 14c0 3 0 4 2 6h6c4-1 13-10 18-18l8-9c3-3 5-4 9-4 36-1 100 6 118 13 7 3 12 8 12 12 0 7-10 22-21 32-7 6-22 14-51 26-27 11-44 16-52 17l-21-3c-24-4-30-3-30 3 0 5 4 7 26 13 8 1 16 4 18 5 6 3 6 6-5 16-12 13-16 22-13 29l4 4c4 2 8 0 11-6 5-9 10-14 24-27l19-16c13-9 46-26 53-26h4v4a88 88 0 0 1-37 55c-16 13-19 16-16 21 1 2 6 3 10 3l19-11 15-11 1 3c4 7 17 23 20 26l7 2c3 0 3-1 4-4 0-4-1-7-6-16l-9-19c-3-8-2-9 8-30l11-24c6-14 25-44 34-54 6-7 11-9 21-9 12 0 21 4 26 10 4 7 12 38 13 54 0 12-2 20-9 35-16 29-15 29-12 33s9 4 13 1c4-4 11-15 18-29l7-10c2 0 13 8 21 14 5 4 8 10 7 18l-6 28c-6 33-5 38 6 22 5-7 6-10 6-13 0-6 2-18 5-22 2-5 6-9 13-13 6-2 10-2 12 1 1 2 1 2-1 4-3 2-2 6 2 10 4 5 7 6 10 4s7-1 27 9c13 5 20 8 21 7 2-1 2-1-18-9-19-8-24-11-28-15-3-4-4-9-1-12 4-6-1-10-24-22-25-14-35-21-41-34-6-11-17-57-16-63 1-4 11-13 20-17a525 525 0 0 0 36-22c6-5 19-13 29-17 10-5 16-5 23 0 6 4 12 5 55 6 52 2 62 2 114 10a762 762 0 0 0 53 6c4 3 53 13 90 18a278 278 0 0 1 67 15l7 1 8 2 22 3c15 3 16 3 20 1l5-1 10 2c12 3 24 10 29 17 6 9 13 23 18 40 6 19 14 39 20 52 7 13 11 25 17 44 6 23 9 30 16 37 6 6 18 10 20 8 2-3 1-6-6-16-12-18-17-37-10-37 4 0 6 2 22 18 17 16 20 18 32 19l9 1a319 319 0 0 0-44-47c-29-25-29-25-46-73l-14-38c-4-10-5-14-4-14l17 9c11 7 25 14 42 21 27 13 47 26 62 42 8 8 11 12 15 25 5 16 8 23 18 33 16 15 34 24 47 24l10-1 2-1-2-3-18-13a95 95 0 0 1-29-26c-3-6-5-13-5-19v-4h6l19 4c12 3 16 3 28 3 15 1 21-1 21-3 0-3-16-8-40-14-28-8-39-13-56-25-32-23-43-30-64-41a354 354 0 0 1-70-43c-1-2-1-2 5-5a439 439 0 0 1 49-21c15-7 21-8 41-8a2364 2364 0 0 1 154 5c1-4-15-13-34-18-15-4-25-5-59-6l-38-2c-17-4-9-9 27-22 30-10 54-22 67-35 7-7 9-11 9-15-1-6-6-5-30 9-23 12-35 18-58 26-21 7-33 12-47 20a1771 1771 0 0 1-85 41l7-13c8-13 13-24 16-38 7-23 20-40 53-67 15-12 23-19 23-22 0-2-11-1-18 1-12 4-25 12-37 24-8 6-15 11-17 11-3 0-6-7-6-14 0-9 4-18 15-35 11-16 14-25 9-26-3 0-8 3-15 10-9 9-23 28-26 35-4 8-5 14-6 49s-1 38-6 48-20 25-29 32l-24 7-19 5-7-2c-13-4-44-9-65-11-17-1-17-1-19-6-3-6-6-6-26-6-11-1-21-1-30-3l-48-5c-14 0-16 0-22-2a351 351 0 0 0-101-12 199 199 0 0 0-71-7l-34-2-9 7-9 6-8-3-13-4c-7-2-12-6-27-26l-17-20c-4-4-6-6-11-17-7-17-10-25-11-34-2-12-1-34 3-54 6-35 7-38 5-41-3-4-6-4-9 0-3 3-6 14-10 32-7 30-10 41-13 41-2 0-6-4-7-7l-13-29-13-30c-1-9 11-21 30-35l15-11c4-3 4-4 3-6-2-3-10-2-19 3-10 5-19 12-34 26-6 6-12 12-14 12-1 1-3 1-8-2-13-6-17-10-17-16l-2-5-3-9a220 220 0 0 0-39-67zm77 109c2 3 5 15 5 16l-6-5c-6-5-9-9-7-12 2-2 7-1 8 1zm22 47c17 33 19 35 29 24l5-5v3l1 15c0 15 1 23 5 30 6 12 35 48 52 65 19 19 25 21 114 24 60 2 54 1 52 3s-3 2-17 2l-29-2h-65c-24 1-28 2-35 6-6 5-16 9-22 11l-19 12-23 14c-10 6-19 15-22 22-3 6-2 11 2 31a240 240 0 0 0 18 51h-5c-5-1-9 0-12 3-2 1-5 8-9 14-5 12-13 22-13 19l8-16c10-21 12-28 11-45s-8-43-14-54c-3-6-6-9-13-12-5-2-7-3-17-3l-16 2c-13 4-30 28-49 68-9 19-15 31-17 31l3-12c3-12 4-23 2-25-3-4-14-1-32 7a192 192 0 0 0-56 36s-2-2-2-5c-2-6-4-9-11-12-7-4-6-5 9-6a498 498 0 0 0 100-40c12-8 23-24 25-37 1-5 1-6-1-11-5-9-15-13-42-17-31-4-83-9-92-8-8 1-11 3-17 8l-6 4-1-4c0-3 0-5-2-6-3-3-8-4-14-4-12 0-43 10-67 23-22 10-18 6 4-6l24-15c3-4 3-5-7-16l-6-9 4 2c13 8 32 12 75 15 32 3 59 4 92 4 44 0 51-1 61-10 14-14 10-26-15-42a409 409 0 0 0-52-29l7 1c11 3 26 4 44 4 42-2 62-8 77-22 9-9 12-17 10-29-4-16-13-39-17-44-3-3-14-8-17-8-5 0-3-2 4-7 6-4 6-8 1-19l1-1 14 26zm-244 20c7 8 19 19 23 21s7 3 11 3h7l5 8c2 5 6 11 9 14 9 10 7 10-12-3l-29-21-14-11h-6c-19 2-26 2-26 1l11-4c7-3 10-5 13-8l4-4 4 4zm915 71c2 2 7 3 11 0 6-3 7-1 1 5-9 10-13 20-17 39-4 13-8 22-17 33-10 13-15 20-15 22s1 3 5 3c10 0 35-10 72-30 42-23 59-30 90-41a286 286 0 0 0 48-19l-19 11-46 20c-23 8-32 15-32 23 0 7 8 9 54 10 34 1 52 2 53 4 2 2-24 2-81 1l-59-1-15 7a588 588 0 0 1-64 30c-2 2-2 2 0 5 2 4 12 11 42 29 72 43 126 78 126 81l-2 1c-3 2-5 7-6 20v11l-4-8c-7-20-16-33-31-46-14-12-34-24-51-31-8-3-27-13-39-21-15-9-17-9-25-12-10-3-15-3-15 2l12 32 17 43c7 21 13 32 25 48 4 5 3 7-3 10-5 3-7 2-7-2 0-5-4-13-10-25-7-12-13-26-21-51-7-21-14-37-21-47-8-10-15-14-29-18l-9-3c-1 0-1-1 1-3 4-7 2-16-6-25l-2-3 12-4c24-8 39-17 50-29 10-13 14-23 18-55l3-23 1-6 2 6c0 3 2 6 3 7zM68 322c2 2 1 3-1 3l-3-2c0-2 2-3 4-1zm517 0c27 2 36 4 36 8 0 2 0 2-8 2l-30-1-55-4c-2 0-3-2-1-3 4-3 31-4 58-2zm93 8c30 3 49 7 54 11 7 6-2 6-41 0l-35-5c-11-1-17-3-17-5 0-1 2-3 5-3 2-1 18 0 34 2zm-30 13-3 1-3-1 2-1 4 1zm128 2c11 0 33 4 37 6 5 3 3 8-4 9-5 1-48-7-55-10-4-2-4-2-3-4 2-1 10-3 14-2l11 1zm-184 3c15 1 26 3 26 4 0 3-13 4-46 2-28-1-42-2-45-4-1-1-1-1 6-2h59zm85 7c28 4 47 7 52 9 3 1 3 2 2 3-2 2-10 1-29-1l-30-4c-27-4-38-6-36-9 1-2 21-1 41 2zm165 4c5 2 6 5 6 7h-11c-6-1-8-4-5-7 2-2 5-2 10 0zm52 6c15 1 44 7 54 10 11 3 14 7 8 9-5 1-42-5-82-12-12-2-14-3-12-6s11-4 32-1zm-115 6 62 12v3c-1 2-1 2-9 2l-30-5c-53-9-56-10-56-13l1-2c1-2 9-1 32 3zm141 15c35 5 51 9 43 12l-5 1-63-14c-2-1 0-3 3-2l22 3zm-764-2-6 7 5-8 1 1zm727 7a2109 2109 0 0 1 69 17l-3 4a4587 4587 0 0 1-80-17c-9-2-15-6-11-8 2-1 1-1 25 4zM436 496c2 1 5 5 3 5l-4-3c-3-3-3-4 1-2zm-161 17v8l-3-1-7-1c-5 1-5 0-1-6 3-4 8-8 9-7l2 7zm953-1c10 4 5 6-6 2-7-3-9-5-3-4l9 2zm-1049 5-4 4c-4 4-6 2-1-2 2-3 5-4 5-2zm61 19c0 1-2 3-4 3s-2 0 0-2 4-3 4-1zm952 17 10 7c-1 1-7-2-12-6-5-3-4-4 2-1z"/>
  <path d="M386 302c-13 8-14 25-4 40 6 7 17 14 24 14 4 0 11-4 13-8 3-6 3-18 0-26-2-7-9-15-16-19-5-3-13-4-17-1zm15 14c6 5 10 12 11 18 0 5-1 8-4 10-6 4-16-4-19-14-5-15 2-23 12-14z"/>
</svg>
